<?xml version="1.0" encoding="utf-8"?>
<!-- Generator: Adobe Illustrator 28.0.0, SVG Export Plug-In . SVG Version: 6.00 Build 0)  -->
<svg version="1.1" id="Laag_1" xmlns="http://www.w3.org/2000/svg" xmlns:xlink="http://www.w3.org/1999/xlink" x="0px" y="0px"
	 viewBox="0 0 489 274.5" style="enable-background:new 0 0 489 274.5;" xml:space="preserve">
<style type="text/css">
	.st0{fill:none;stroke:#000000;stroke-width:3;stroke-linecap:round;stroke-miterlimit:10;}
</style>
<polyline class="st0" points="291.6,232.1 41.9,232.1 41.9,31.7 435.2,31.7 435.2,96.3 "/>
<g>
	<path d="M95.2,156.9c3.9,0.3,9.2,1,12.2,1.9v4c-6-0.3-12.4-0.5-17.8-0.5c-5.2,0-11.1,0.1-17.2,0.5v-4c3.4-0.9,7.3-1.5,10.8-1.8
		c0.7-9.7,0.8-14,0.8-21.2V93.5c-3.4-0.3-9.1-1-12.7-1.9v-4c6.2,0.3,13,0.5,18.3,0.5c5.4,0,10.8-0.1,16.9-0.5v4
		c-3.7,0.9-7.4,1.5-11.3,1.9V156.9z"/>
	<path d="M149.3,162.9v-4c2.2-0.7,5.4-1.3,8.4-1.5c0.6-10,0.7-14.4,0.7-21.6v-8.2c0-7.6-5.6-10.8-9.7-10.8c-5.4,0-10.4,3.7-13.9,7.1
		v33.4c3,0.3,5.6,0.9,8,1.6v4c-3.1-0.2-8.9-0.5-13-0.5c-4.1,0-11.8,0.2-14.8,0.5v-4c2.2-0.7,6-1.3,9.1-1.5
		c0.6-9.9,0.7-14.4,0.7-21.6v-16.8l-11.6-2.2v-3.1c5.5-1.8,12.9-3.4,18.7-4c1.3,2.3,2.2,6.4,2.5,10.7c3.2-4.7,8-10.7,17.6-10.7
		c10.5,0,16.5,5.5,16.5,16.9v30.6c3.1,0.3,6.6,0.9,9,1.6v4c-3.1-0.2-9.9-0.5-14-0.5S152.4,162.6,149.3,162.9z"/>
	<path d="M194,92.5h5.6v19.1h18.7v6.4l-18.7-0.3v32.7c0,5.4,3.5,7.3,7.8,7.3c4,0,7.8-1.5,10.5-3.2l1.9,2.7c-5.2,4.8-11,7.3-16.5,7.3
		c-9.5,0-13.7-5-13.7-17v-29.2l-10.3-1v-2.9c4.1-1.8,6.7-2.4,10.3-3.2C189.7,108.4,190.3,100.7,194,92.5z"/>
	<path d="M268.8,152.3l1.7,2.5c-4.9,4.5-11,9.7-22.6,9.7c-11.1,0-23-10-23-27.2c0-19.1,13.5-27.5,26.4-27.5c9.1,0,18.8,7.8,19.9,21
		l-1.3,2.2h-35c0,14,8,24.4,20.3,24.4C259.2,157.4,265.4,154.8,268.8,152.3z M235.2,129l24.9-0.8c-1.5-9.9-6.4-13.8-12-13.8
		C241.8,114.4,236.6,120.7,235.2,129z"/>
	<path d="M321.5,116.1c0,2.9-1.6,6.2-4.1,8l-7.5-3.7c-4.3,1-7,2.4-11.8,8.1v28.8c3.8,0.3,9.8,0.9,12.8,1.6v4
		c-7.3-0.3-13.4-0.5-17.8-0.5s-10.3,0.1-14.8,0.5v-4c2.4-0.7,6.5-1.3,9.1-1.5c0.6-9.9,0.7-14.3,0.7-21.6v-16.8l-11.6-2.2v-3.1
		c5.5-1.8,12.9-3.4,18.7-4c1,2.6,2.1,6.8,2.4,15.2c3.8-7.2,9.4-15.2,16.7-15.2C319.3,109.8,321.5,112.8,321.5,116.1z"/>
	<path d="M325.7,162.9v-4c2.4-0.7,5.9-1.1,9.1-1.5c0.6-9.8,0.7-14.1,0.7-21.6v-16.8l-11.6-2.2v-3.1c5.5-1.8,14.5-3.4,20.2-4
		c1.1,1.5,1.5,3.4,1.5,9.2v38.2c3.1,0.3,6.4,0.9,8.9,1.6v4c-3.1-0.2-9.9-0.5-14-0.5C336.3,162.4,328.8,162.6,325.7,162.9z M339.5,86
		c3.9,0,7.1,3.2,7.1,7.1c0,3.9-3.2,7.1-7.1,7.1c-3.9,0-7.1-3.2-7.1-7.1C332.4,89.2,335.6,86,339.5,86z"/>
	<path d="M385.1,164.5c-13.5,0-24.9-9-24.9-26.2c0-17,11.9-28.4,25.4-28.4c13.5,0,25.2,9,25.2,26.2
		C410.9,153.1,398.7,164.5,385.1,164.5z M384.5,114.4c-8.4,0-13.8,8.2-13.8,19.5c0,13.5,6.2,26,16.1,26c8.4,0,13.8-8.2,13.8-19.5
		C400.5,126.9,394.4,114.4,384.5,114.4z"/>
	<path d="M461.7,116.1c0,2.9-1.6,6.2-4.1,8l-7.5-3.7c-4.3,1-7,2.4-11.8,8.1v28.8c3.8,0.3,9.8,0.9,12.8,1.6v4
		c-7.3-0.3-13.4-0.5-17.8-0.5s-10.3,0.1-14.8,0.5v-4c2.4-0.7,6.5-1.3,9.1-1.5c0.6-9.9,0.7-14.3,0.7-21.6v-16.8l-11.6-2.2v-3.1
		c5.5-1.8,12.9-3.4,18.7-4c1,2.6,2.1,6.8,2.4,15.2c3.8-7.2,9.4-15.2,16.7-15.2C459.5,109.8,461.7,112.8,461.7,116.1z"/>
</g>
<g>
	<path d="M304.1,179.2c0-1.6,1-2.7,2.5-2.7h13.3c19.4,0,30.6,10.5,30.6,28c0,17.6-11.6,28.3-31,28.3h-12.9c-1.5,0-2.5-1.1-2.5-2.7
		V179.2z M345.9,204.6c0-15-9.6-24.2-26-24.2h-11.4v48.4h11.2C336.5,228.8,345.9,219.8,345.9,204.6z"/>
	<path d="M387.6,208.8h0.9v-2.1c0-7.7-4.7-12.1-12.5-12.1c-7.1,0-11.7,3.3-13.9,7.7c-0.2,0-2.4-0.3-2.4-2.4c0-0.9,0.9-2.6,2.3-4
		c2.6-2.6,7.2-5.2,14.3-5.2c10.3,0,16.4,6,16.4,15.9v25.9c0,0.1-0.7,0.4-1.5,0.4c-1.5,0-2.7-0.8-2.7-4.2v-4.3c-2.7,5.3-8.8,9-16.3,9
		c-8.8,0-14.3-4.4-14.3-11.3C357.9,213,367,209.1,387.6,208.8z M388.5,212.1h-1.1c-17.8,0.3-25,3.2-25,10.2c0,4.9,4,7.7,10.3,7.7
		c8.9,0,15.9-6,15.9-13.8V212.1z"/>
	<path d="M406.9,175.5c2,0,3,1,3,3.1c0,1.9-1.1,3-3.2,3c-1.8,0-2.9-1-2.9-3C403.8,176.6,404.9,175.5,406.9,175.5z M404.7,193.3
		c0-1.6,0.8-2,1.8-2h0.5c1.1,0,1.9,0.4,1.9,2V231c0,1.6-0.8,2-1.9,2h-0.5c-1,0-1.8-0.4-1.8-2V193.3z"/>
	<path d="M421.8,231v-56.8c0-0.2,0.6-0.4,1.4-0.4c1.5,0,2.9,0.8,2.9,4.2v53c0,1.5-0.8,2-1.9,2h-0.5C422.6,233,421.8,232.5,421.8,231
		z"/>
	<path d="M444.9,248.4l7.3-17.9c-1.5,0-2.2-0.3-2.7-1.7l-15.7-36.3c0-0.5,1-1.4,2.3-1.3c1,0.1,2.2,0.9,3,2.8l14.3,33.9l12.7-33.7
		c1-2.5,2.3-3.1,3.4-3c1,0.1,1.8,0.8,1.8,1.1l-21.1,54.2c-0.8,2.3-1.8,2.9-3,2.9C445.9,249.5,444.8,248.6,444.9,248.4z"/>
</g>
</svg>
